<?xml version="1.0" encoding="utf-8"?>
<!-- Generator: Adobe Illustrator 25.2.3, SVG Export Plug-In . SVG Version: 6.00 Build 0)  -->
<svg version="1.1" id="Ebene_1" xmlns="http://www.w3.org/2000/svg" xmlns:xlink="http://www.w3.org/1999/xlink" x="0px" y="0px"
	 viewBox="0 0 1024 1024" style="enable-background:new 0 0 1024 1024;" xml:space="preserve">
<style type="text/css">
	.st0{fill:#4B39EF;}
	.st1{fill:#FFFFFF;stroke:#6F6F6E;stroke-width:3;stroke-miterlimit:10;}
</style>
<rect class="st0" width="1024" height="1024"/>
<circle class="st1" cx="512" cy="512" r="340.59"/>
<path class="st0" d="M537.21,285.18h-50.34v251.69h50.34V285.18 M658.78,339.79l-35.74,35.74c41.28,33.22,65.19,83.31,65.19,136.16
	c0,97.3-78.88,176.18-176.18,176.18c-97.15,0-176.18-78.53-176.18-176.18c0-52.6,23.91-102.94,64.94-136.41l-35.49-35.49
	c-95.39,81.04-106.97,224-25.92,319.39c81.04,95.14,224,106.71,319.39,25.67c50.84-43.04,79.78-106.46,79.78-173.16
	C738.56,445.5,709.36,382.58,658.78,339.79z"/>
<g>
</g>
<g>
</g>
<g>
</g>
<g>
</g>
<g>
</g>
<g>
</g>
</svg>
